<?xml version="1.0" encoding="utf-8"?>
<svg version="1.1" xmlns:xlink="http://www.w3.org/1999/xlink" width="22px" height="24px" xmlns="http://www.w3.org/2000/svg">
  <g transform="matrix(1 0 0 1 -1381 -613 )">
    <path d="M 3.39453125 20.0336538461538  C 3.57595486111111 19.8509615384615  3.66666666666667 19.6346153846154  3.66666666666667 19.3846153846154  C 3.66666666666667 19.1346153846154  3.57595486111111 18.9182692307692  3.39453125 18.7355769230769  C 3.21310763888889 18.5528846153846  2.99826388888889 18.4615384615385  2.75 18.4615384615385  C 2.50173611111111 18.4615384615385  2.28689236111111 18.5528846153846  2.10546875 18.7355769230769  C 1.92404513888889 18.9182692307692  1.83333333333333 19.1346153846154  1.83333333333333 19.3846153846154  C 1.83333333333333 19.6346153846154  1.92404513888889 19.8509615384615  2.10546875 20.0336538461538  C 2.28689236111111 20.2163461538462  2.50173611111111 20.3076923076923  2.75 20.3076923076923  C 2.99826388888889 20.3076923076923  3.21310763888889 20.2163461538462  3.39453125 20.0336538461538  Z M 19.8587239583333 12.2451923076923  C 20.0640190972222 11.8028846153846  20.1666666666667 11.4134615384615  20.1666666666667 11.0769230769231  C 20.1666666666667 10.5865384615385  19.98046875 10.15625  19.6080729166667 9.78605769230769  C 19.2356770833333 9.41586538461538  18.8107638888889 9.23076923076923  18.3333333333333 9.23076923076923  L 13.2916666666667 9.23076923076923  C 13.2916666666667 8.67307692307692  13.5208333333333 7.90625  13.9791666666667 6.93028846153846  C 14.4375 5.95432692307692  14.6666666666667 5.18269230769231  14.6666666666667 4.61538461538462  C 14.6666666666667 3.67307692307692  14.5138888888889 2.97596153846154  14.2083333333333 2.52403846153846  C 13.9027777777778 2.07211538461538  13.2916666666667 1.84615384615384  12.375 1.84615384615384  C 12.1267361111111 2.09615384615384  11.9453125 2.50480769230769  11.8307291666667 3.07211538461539  C 11.7161458333333 3.63942307692308  11.5705295138889 4.24278846153846  11.3938802083333 4.88221153846154  C 11.2172309027778 5.52163461538461  10.9331597222222 6.04807692307692  10.5416666666667 6.46153846153846  C 10.3315972222222 6.68269230769231  9.96397569444445 7.12019230769231  9.43880208333333 7.77403846153846  C 9.40060763888889 7.82211538461538  9.29079861111111 7.96634615384615  9.109375 8.20673076923077  C 8.92795138888889 8.44711538461538  8.77756076388889 8.64423076923077  8.658203125 8.79807692307692  C 8.53884548611111 8.95192307692308  8.37413194444445 9.15625  8.1640625 9.41105769230769  C 7.95399305555556 9.66586538461538  7.76302083333333 9.87740384615384  7.59114583333333 10.0456730769231  C 7.41927083333333 10.2139423076923  7.23546006944444 10.3846153846154  7.03971354166667 10.5576923076923  C 6.84396701388889 10.7307692307692  6.65299479166667 10.8605769230769  6.466796875 10.9471153846154  C 6.28059895833333 11.0336538461538  6.11111111111111 11.0769230769231  5.95833333333333 11.0769230769231  L 5.5 11.0769230769231  L 5.5 20.3076923076923  L 5.95833333333333 20.3076923076923  C 6.08246527777778 20.3076923076923  6.23285590277778 20.3221153846154  6.40950520833333 20.3509615384615  C 6.58615451388889 20.3798076923077  6.74370659722222 20.4110576923077  6.88216145833333 20.4447115384615  C 7.02061631944445 20.4783653846154  7.20203993055556 20.53125  7.42643229166667 20.6033653846154  C 7.65082465277778 20.6754807692308  7.81792534722222 20.7307692307692  7.927734375 20.7692307692308  C 8.03754340277778 20.8076923076923  8.20703125 20.8677884615385  8.43619791666667 20.9495192307692  C 8.66536458333333 21.03125  8.80381944444445 21.0817307692308  8.8515625 21.1009615384615  C 10.8663194444444 21.8028846153846  12.4991319444444 22.1538461538462  13.75 22.1538461538462  L 15.4830729166667 22.1538461538462  C 17.31640625 22.1538461538462  18.2330729166667 21.3509615384615  18.2330729166667 19.7451923076923  C 18.2330729166667 19.4951923076923  18.2092013888889 19.2259615384615  18.1614583333333 18.9375  C 18.4479166666667 18.7836538461538  18.6746961805556 18.53125  18.841796875 18.1802884615385  C 19.0088975694444 17.8293269230769  19.0924479166667 17.4759615384615  19.0924479166667 17.1201923076923  C 19.0924479166667 16.7644230769231  19.0065104166667 16.4326923076923  18.8346354166667 16.125  C 19.3407118055556 15.6442307692308  19.59375 15.0721153846154  19.59375 14.4086538461538  C 19.59375 14.1682692307692  19.5460069444444 13.9014423076923  19.4505208333333 13.6081730769231  C 19.3550347222222 13.3149038461538  19.2356770833333 13.0865384615385  19.0924479166667 12.9230769230769  C 19.3980034722222 12.9134615384615  19.6534288194444 12.6875  19.8587239583333 12.2451923076923  Z M 20.9114583333333 8.48076923076923  C 21.6371527777778 9.21153846153846  22 10.0721153846154  22 11.0625  C 22 11.9182692307692  21.7660590277778 12.7019230769231  21.2981770833333 13.4134615384615  C 21.3841145833333 13.7307692307692  21.4270833333333 14.0625  21.4270833333333 14.4086538461538  C 21.4270833333333 15.1490384615385  21.2456597222222 15.8413461538462  20.8828125 16.4855769230769  C 20.9114583333333 16.6875  20.92578125 16.8942307692308  20.92578125 17.1057692307692  C 20.92578125 18.0769230769231  20.6393229166667 18.9326923076923  20.06640625 19.6730769230769  C 20.0759548611111 21.0096153846154  19.6701388888889 22.0649038461538  18.8489583333333 22.8389423076923  C 18.0277777777778 23.6129807692308  16.9440104166667 24  15.59765625 24  L 15.08203125 24  L 13.75 24  C 12.8333333333333 24  11.9286024305556 23.8918269230769  11.0358072916667 23.6754807692308  C 10.1430121527778 23.4591346153846  9.109375 23.1442307692308  7.93489583333333 22.7307692307692  C 6.82725694444445 22.3461538461538  6.16840277777778 22.1538461538462  5.95833333333333 22.1538461538462  L 1.83333333333333 22.1538461538462  C 1.32725694444444 22.1538461538462  0.895182291666667 21.9735576923077  0.537109375 21.6129807692308  C 0.179036458333333 21.2524038461538  0 20.8173076923077  0 20.3076923076923  L 0 11.0769230769231  C 0 10.5673076923077  0.179036458333333 10.1322115384615  0.537109375 9.77163461538462  C 0.895182291666667 9.41105769230769  1.32725694444444 9.23076923076923  1.83333333333333 9.23076923076923  L 5.7578125 9.23076923076923  C 6.1015625 9  6.75564236111111 8.25480769230769  7.72005208333333 6.99519230769231  C 8.27387152777778 6.27403846153846  8.78472222222222 5.65865384615384  9.25260416666667 5.14903846153846  C 9.48177083333333 4.90865384615384  9.65125868055556 4.49759615384615  9.76106770833333 3.91586538461539  C 9.87087673611111 3.33413461538461  10.0164930555556 2.72596153846154  10.1979166666667 2.09134615384616  C 10.3793402777778 1.45673076923077  10.6753472222222 0.9375  11.0859375 0.533653846153845  C 11.4583333333333 0.177884615384617  11.8880208333333 0  12.375 0  C 13.1770833333333 0  13.8980034722222 0.156250000000002  14.5377604166667 0.46875  C 15.1775173611111 0.781249999999998  15.6644965277778 1.26923076923077  15.9986979166667 1.93269230769231  C 16.3328993055556 2.59615384615384  16.5 3.49038461538462  16.5 4.61538461538462  C 16.5 5.50961538461539  16.2708333333333 6.43269230769231  15.8125 7.38461538461539  L 18.3333333333333 7.38461538461539  C 19.3263888888889 7.38461538461539  20.1857638888889 7.75  20.9114583333333 8.48076923076923  Z " fill-rule="nonzero" fill="#1e5df8" stroke="none" transform="matrix(1 0 0 1 1381 613 )" />
  </g>
</svg>