<?xml version="1.0" encoding="utf-8"?>
<svg version="1.1" xmlns:xlink="http://www.w3.org/1999/xlink" width="22px" height="24px" xmlns="http://www.w3.org/2000/svg">
  <g transform="matrix(1 0 0 1 -1423 -613 )">
    <path d="M 3.39453125 5.26442307692308  C 3.57595486111111 5.08173076923077  3.66666666666667 4.86538461538461  3.66666666666667 4.61538461538462  C 3.66666666666667 4.36538461538461  3.57595486111111 4.14903846153846  3.39453125 3.96634615384616  C 3.21310763888889 3.78365384615384  2.99826388888889 3.69230769230769  2.75 3.69230769230769  C 2.50173611111111 3.69230769230769  2.28689236111111 3.78365384615384  2.10546875 3.96634615384616  C 1.92404513888889 4.14903846153846  1.83333333333333 4.36538461538461  1.83333333333333 4.61538461538462  C 1.83333333333333 4.86538461538461  1.92404513888889 5.08173076923077  2.10546875 5.26442307692308  C 2.28689236111111 5.44711538461538  2.50173611111111 5.53846153846154  2.75 5.53846153846154  C 2.99826388888889 5.53846153846154  3.21310763888889 5.44711538461538  3.39453125 5.26442307692308  Z M 19.6080729166667 14.2139423076923  C 19.98046875 13.84375  20.1666666666667 13.4134615384615  20.1666666666667 12.9230769230769  C 20.1666666666667 12.5865384615385  20.0640190972222 12.1971153846154  19.8587239583333 11.7548076923077  C 19.6534288194444 11.3125  19.3980034722222 11.0865384615385  19.0924479166667 11.0769230769231  C 19.2356770833333 10.9134615384615  19.3550347222222 10.6850961538462  19.4505208333333 10.3918269230769  C 19.5460069444444 10.0985576923077  19.59375 9.83173076923077  19.59375 9.59134615384616  C 19.59375 8.92788461538462  19.3407118055556 8.35576923076923  18.8346354166667 7.875  C 19.0065104166667 7.57692307692308  19.0924479166667 7.24519230769231  19.0924479166667 6.87980769230769  C 19.0924479166667 6.52403846153846  19.0088975694444 6.17067307692308  18.841796875 5.81971153846154  C 18.6746961805556 5.46875  18.4479166666667 5.21634615384615  18.1614583333333 5.0625  C 18.2092013888889 4.77403846153846  18.2330729166667 4.50480769230769  18.2330729166667 4.25480769230769  C 18.2330729166667 3.4375  17.9991319444444 2.83173076923077  17.53125 2.4375  C 17.0633680555556 2.04326923076923  16.4140625 1.84615384615384  15.5833333333333 1.84615384615384  L 13.75 1.84615384615384  C 12.4991319444444 1.84615384615384  10.8663194444444 2.19711538461538  8.8515625 2.89903846153846  C 8.80381944444445 2.91826923076923  8.66536458333333 2.96875  8.43619791666667 3.05048076923077  C 8.20703125 3.13221153846154  8.03754340277778 3.19230769230769  7.927734375 3.23076923076923  C 7.81792534722222 3.26923076923077  7.65082465277778 3.32451923076923  7.42643229166667 3.39663461538462  C 7.20203993055556 3.46875  7.02061631944445 3.52163461538461  6.88216145833333 3.55528846153846  C 6.74370659722222 3.58894230769231  6.58615451388889 3.62019230769231  6.40950520833333 3.64903846153846  C 6.23285590277778 3.67788461538462  6.08246527777778 3.69230769230769  5.95833333333333 3.69230769230769  L 5.5 3.69230769230769  L 5.5 12.9230769230769  L 5.95833333333333 12.9230769230769  C 6.11111111111111 12.9230769230769  6.28059895833333 12.9663461538462  6.466796875 13.0528846153846  C 6.65299479166667 13.1394230769231  6.84396701388889 13.2692307692308  7.03971354166667 13.4423076923077  C 7.23546006944444 13.6153846153846  7.41927083333333 13.7860576923077  7.59114583333333 13.9543269230769  C 7.76302083333333 14.1225961538462  7.95399305555556 14.3341346153846  8.1640625 14.5889423076923  C 8.37413194444445 14.84375  8.53884548611111 15.0480769230769  8.658203125 15.2019230769231  C 8.77756076388889 15.3557692307692  8.92795138888889 15.5528846153846  9.109375 15.7932692307692  C 9.29079861111111 16.0336538461538  9.40060763888889 16.1778846153846  9.43880208333333 16.2259615384615  C 9.96397569444445 16.8798076923077  10.3315972222222 17.3173076923077  10.5416666666667 17.5384615384615  C 10.9331597222222 17.9519230769231  11.2172309027778 18.4783653846154  11.3938802083333 19.1177884615385  C 11.5705295138889 19.7572115384615  11.7161458333333 20.3605769230769  11.8307291666667 20.9278846153846  C 11.9453125 21.4951923076923  12.1267361111111 21.9038461538462  12.375 22.1538461538462  C 13.2916666666667 22.1538461538462  13.9027777777778 21.9278846153846  14.2083333333333 21.4759615384615  C 14.5138888888889 21.0240384615385  14.6666666666667 20.3269230769231  14.6666666666667 19.3846153846154  C 14.6666666666667 18.8173076923077  14.4375 18.0456730769231  13.9791666666667 17.0697115384615  C 13.5208333333333 16.09375  13.2916666666667 15.3269230769231  13.2916666666667 14.7692307692308  L 18.3333333333333 14.7692307692308  C 18.8107638888889 14.7692307692308  19.2356770833333 14.5841346153846  19.6080729166667 14.2139423076923  Z M 21.2981770833333 10.5865384615385  C 21.7660590277778 11.2884615384615  22 12.0721153846154  22 12.9375  C 22 13.9278846153846  21.6371527777778 14.7884615384615  20.9114583333333 15.5192307692308  C 20.1857638888889 16.25  19.3263888888889 16.6153846153846  18.3333333333333 16.6153846153846  L 15.8125 16.6153846153846  C 16.2708333333333 17.5673076923077  16.5 18.4903846153846  16.5 19.3846153846154  C 16.5 20.5192307692308  16.3328993055556 21.4134615384615  15.9986979166667 22.0673076923077  C 15.6644965277778 22.7307692307692  15.1775173611111 23.21875  14.5377604166667 23.53125  C 13.8980034722222 23.84375  13.1770833333333 24  12.375 24  C 11.8880208333333 24  11.4583333333333 23.8221153846154  11.0859375 23.4663461538462  C 10.7612847222222 23.1490384615385  10.5034722222222 22.7548076923077  10.3125 22.2836538461538  C 10.1215277777778 21.8125  9.99978298611111 21.3774038461538  9.947265625 20.9783653846154  C 9.89474826388889 20.5793269230769  9.81119791666667 20.1730769230769  9.69661458333333 19.7596153846154  C 9.58203125 19.3461538461538  9.43402777777778 19.0384615384615  9.25260416666667 18.8365384615385  C 8.79427083333333 18.3557692307692  8.28342013888889 17.7451923076923  7.72005208333333 17.0048076923077  C 6.75564236111111 15.7451923076923  6.1015625 15  5.7578125 14.7692307692308  L 1.83333333333333 14.7692307692308  C 1.32725694444444 14.7692307692308  0.895182291666667 14.5889423076923  0.537109375 14.2283653846154  C 0.179036458333333 13.8677884615385  0 13.4326923076923  0 12.9230769230769  L 0 3.69230769230769  C 0 3.18269230769231  0.179036458333333 2.74759615384616  0.537109375 2.38701923076923  C 0.895182291666667 2.02644230769231  1.32725694444444 1.84615384615384  1.83333333333333 1.84615384615384  L 5.95833333333333 1.84615384615384  C 6.16840277777778 1.84615384615384  6.82725694444445 1.65384615384615  7.93489583333333 1.26923076923077  C 9.15711805555556 0.846153846153843  10.2217881944444 0.528846153846151  11.12890625 0.317307692307693  C 12.0360243055556 0.105769230769229  12.9908854166667 0  13.9934895833333 0  L 15.59765625 0  C 16.9344618055556 0  18.0158420138889 0.379807692307692  18.841796875 1.13942307692308  C 19.6677517361111 1.89903846153846  20.0759548611111 2.9375  20.06640625 4.25480769230769  L 20.06640625 4.32692307692308  C 20.6393229166667 5.06730769230769  20.92578125 5.92307692307692  20.92578125 6.89423076923077  C 20.92578125 7.10576923076923  20.9114583333333 7.3125  20.8828125 7.51442307692308  C 21.2456597222222 8.15865384615384  21.4270833333333 8.85096153846154  21.4270833333333 9.59134615384616  C 21.4270833333333 9.9375  21.3841145833333 10.2692307692308  21.2981770833333 10.5865384615385  Z " fill-rule="nonzero" fill="#1e5df8" stroke="none" transform="matrix(1 0 0 1 1423 613 )" />
  </g>
</svg>