<?xml version="1.0" encoding="utf-8"?>
<svg version="1.1" xmlns:xlink="http://www.w3.org/1999/xlink" width="14px" height="13px" xmlns="http://www.w3.org/2000/svg">
  <g transform="matrix(1 0 0 1 -934 -619 )">
    <path d="M 4.25833333333333 2.640625  C 4.53055555555556 2.95659722222222  4.66666666666667 3.34027777777778  4.66666666666667 3.79166666666667  C 4.66666666666667 4.24305555555556  4.53055555555556 4.62673611111111  4.25833333333333 4.94270833333333  C 3.98611111111111 5.25868055555556  3.65555555555556 5.41666666666667  3.26666666666667 5.41666666666667  C 2.87777777777778 5.41666666666667  2.54722222222222 5.25868055555556  2.275 4.94270833333333  C 2.00277777777778 4.62673611111111  1.86666666666667 4.24305555555556  1.86666666666667 3.79166666666667  C 1.86666666666667 3.34027777777778  2.00277777777778 2.95659722222222  2.275 2.640625  C 2.54722222222222 2.32465277777778  2.87777777777778 2.16666666666667  3.26666666666667 2.16666666666667  C 3.65555555555556 2.16666666666667  3.98611111111111 2.32465277777778  4.25833333333333 2.640625  Z M 9.1 3.52083333333333  L 12.1333333333333 7.04166666666667  L 12.1333333333333 10.8333333333333  L 1.86666666666667 10.8333333333333  L 1.86666666666667 9.20833333333333  L 4.2 6.5  L 5.36666666666667 7.85416666666667  L 9.1 3.52083333333333  Z M 12.9973958333333 1.16373697916667  C 12.9512152777778 1.11013454861111  12.8965277777778 1.08333333333333  12.8333333333333 1  L 1.16666666666667 1  C 1.10347222222222 1.08333333333333  1.04878472222222 1.11013454861111  1.00260416666667 1.16373697916667  C 0.956423611111111 1.21733940972222  0.933333333333333 1.28081597222222  1 1.35416666666667  L 1 11.6458333333333  C 0.933333333333333 11.7191840277778  0.956423611111111 11.7826605902778  1.00260416666667 11.8362630208333  C 1.04878472222222 11.8898654513889  1.10347222222222 11.9166666666667  1.16666666666667 12  L 12.8333333333333 12  C 12.8965277777778 11.9166666666667  12.9512152777778 11.8898654513889  12.9973958333333 11.8362630208333  C 13.0435763888889 11.7826605902778  13.0666666666667 11.7191840277778  13 11.6458333333333  L 13 1.35416666666667  C 13.0666666666667 1.28081597222222  13.0435763888889 1.21733940972222  12.9973958333333 1.16373697916667  Z M 13.6572916666667 0.397786458333334  C 13.8857638888889 0.662977430555555  14 0.981770833333334  14 1.35416666666667  L 14 11.6458333333333  C 14 12.0182291666667  13.8857638888889 12.3370225694444  13.6572916666667 12.6022135416667  C 13.4288194444444 12.8674045138889  13.1541666666667 13  12.8333333333333 13  L 1.16666666666667 13  C 0.845833333333333 13  0.571180555555556 12.8674045138889  0.342708333333333 12.6022135416667  C 0.114236111111111 12.3370225694444  0 12.0182291666667  0 11.6458333333333  L 0 1.35416666666667  C 0 0.981770833333334  0.114236111111111 0.662977430555555  0.342708333333333 0.397786458333334  C 0.571180555555556 0.13259548611111  0.845833333333333 0  1.16666666666667 0  L 12.8333333333333 0  C 13.1541666666667 0  13.4288194444444 0.13259548611111  13.6572916666667 0.397786458333334  Z " fill-rule="nonzero" fill="#ffffff" stroke="none" transform="matrix(1 0 0 1 934 619 )" />
  </g>
</svg>