<?xml version="1.0" encoding="utf-8"?>
<svg version="1.1" xmlns:xlink="http://www.w3.org/1999/xlink" width="14px" height="14px" viewBox="1131 771  14 14" xmlns="http://www.w3.org/2000/svg">
  <path d="M 1138 771  C 1141.92 771  1145 774.08  1145 778  C 1145 781.92  1141.92 785  1138 785  C 1134.08 785  1131 781.92  1131 778  C 1131 774.08  1134.08 771  1138 771  Z " fill-rule="nonzero" fill="#f0f0f0" stroke="none" />
  <path d="M 1138 771.5  C 1141.64 771.5  1144.5 774.36  1144.5 778  C 1144.5 781.64  1141.64 784.5  1138 784.5  C 1134.36 784.5  1131.5 781.64  1131.5 778  C 1131.5 774.36  1134.36 771.5  1138 771.5  Z " stroke-width="1" stroke="#797979" fill="none" />
  <path d="M 1138 781.5  C 1136.04 781.5  1134.5 779.96  1134.5 778  C 1134.5 776.04  1136.04 774.5  1138 774.5  C 1139.96 774.5  1141.5 776.04  1141.5 778  C 1141.5 779.96  1139.96 781.5  1138 781.5  " fill-rule="nonzero" fill="#797979" stroke="none" />
</svg>