<?xml version="1.0" encoding="utf-8"?>
<svg version="1.1" xmlns:xlink="http://www.w3.org/1999/xlink" width="14px" height="14px" viewBox="1382 317  14 14" xmlns="http://www.w3.org/2000/svg">
  <path d="M 1389 317  C 1392.92 317  1396 320.08  1396 324  C 1396 327.92  1392.92 331  1389 331  C 1385.08 331  1382 327.92  1382 324  C 1382 320.08  1385.08 317  1389 317  Z " fill-rule="nonzero" fill="#ffffff" stroke="none" />
  <path d="M 1389 317.5  C 1392.64 317.5  1395.5 320.36  1395.5 324  C 1395.5 327.64  1392.64 330.5  1389 330.5  C 1385.36 330.5  1382.5 327.64  1382.5 324  C 1382.5 320.36  1385.36 317.5  1389 317.5  Z " stroke-width="1" stroke="#797979" fill="none" />
  <path d="M 1389 327.5  C 1387.04 327.5  1385.5 325.96  1385.5 324  C 1385.5 322.04  1387.04 320.5  1389 320.5  C 1390.96 320.5  1392.5 322.04  1392.5 324  C 1392.5 325.96  1390.96 327.5  1389 327.5  " fill-rule="nonzero" fill="#797979" stroke="none" />
</svg>