<?xml version="1.0" encoding="utf-8"?>
<svg version="1.1" xmlns:xlink="http://www.w3.org/1999/xlink" width="14px" height="14px" viewBox="1005 3184  14 14" xmlns="http://www.w3.org/2000/svg">
  <path d="M 1012 3184  C 1015.92 3184  1019 3187.08  1019 3191  C 1019 3194.92  1015.92 3198  1012 3198  C 1008.08 3198  1005 3194.92  1005 3191  C 1005 3187.08  1008.08 3184  1012 3184  Z " fill-rule="nonzero" fill="#ffffff" stroke="none" />
  <path d="M 1012 3184.5  C 1015.64 3184.5  1018.5 3187.36  1018.5 3191  C 1018.5 3194.64  1015.64 3197.5  1012 3197.5  C 1008.36 3197.5  1005.5 3194.64  1005.5 3191  C 1005.5 3187.36  1008.36 3184.5  1012 3184.5  Z " stroke-width="1" stroke="#797979" fill="none" />
  <path d="M 1012 3194.5  C 1010.04 3194.5  1008.5 3192.96  1008.5 3191  C 1008.5 3189.04  1010.04 3187.5  1012 3187.5  C 1013.96 3187.5  1015.5 3189.04  1015.5 3191  C 1015.5 3192.96  1013.96 3194.5  1012 3194.5  " fill-rule="nonzero" fill="#797979" stroke="none" />
</svg>