<?xml version="1.0" encoding="utf-8"?>
<svg version="1.1" xmlns:xlink="http://www.w3.org/1999/xlink" width="14px" height="14px" viewBox="584 146  14 14" xmlns="http://www.w3.org/2000/svg">
  <path d="M 591 146  C 594.92 146  598 149.08  598 153  C 598 156.92  594.92 160  591 160  C 587.08 160  584 156.92  584 153  C 584 149.08  587.08 146  591 146  Z " fill-rule="nonzero" fill="#f0f0f0" stroke="none" />
  <path d="M 591 146.5  C 594.64 146.5  597.5 149.36  597.5 153  C 597.5 156.64  594.64 159.5  591 159.5  C 587.36 159.5  584.5 156.64  584.5 153  C 584.5 149.36  587.36 146.5  591 146.5  Z " stroke-width="1" stroke="#797979" fill="none" />
  <path d="M 591 156.5  C 589.04 156.5  587.5 154.96  587.5 153  C 587.5 151.04  589.04 149.5  591 149.5  C 592.96 149.5  594.5 151.04  594.5 153  C 594.5 154.96  592.96 156.5  591 156.5  " fill-rule="nonzero" fill="#797979" stroke="none" />
</svg>