<?xml version="1.0" encoding="utf-8"?>
<svg version="1.1" xmlns:xlink="http://www.w3.org/1999/xlink" width="21px" height="24px" xmlns="http://www.w3.org/2000/svg">
  <g transform="matrix(1 0 0 1 -1465 -613 )">
    <path d="M 15.4736842105263 2.18181818181818  L 15.4736842105263 0  L 2.21052631578947 0  C 0.98921052631579 0  0 0.976363636363636  0 2.18181818181818  L 0 17.4545454545455  L 2.21052631578947 17.4545454545455  L 2.21052631578947 2.18181818181818  L 15.4736842105263 2.18181818181818  Z M 21 6.54545454545455  C 21 5.34  20.0107894736842 4.36363636363636  18.7894736842105 4.36363636363636  L 6.63157894736842 4.36363636363636  C 5.41026315789474 4.36363636363636  4.42105263157895 5.34  4.42105263157895 6.54545454545455  L 4.42105263157895 21.8181818181818  C 4.42105263157895 23.0236363636364  5.41026315789474 24  6.63157894736842 24  L 18.7894736842105 24  C 20.0107894736842 24  21 23.0236363636364  21 21.8181818181818  L 21 6.54545454545455  Z M 18.7894736842105 7  L 18.7894736842105 21.8181818181818  L 7 21.8181818181818  L 7 7  L 18.7894736842105 7  Z " fill-rule="nonzero" fill="#1e5df8" stroke="none" transform="matrix(1 0 0 1 1465 613 )" />
  </g>
</svg>