<?xml version="1.0" encoding="utf-8"?>
<svg version="1.1" xmlns:xlink="http://www.w3.org/1999/xlink" width="24px" height="24px" xmlns="http://www.w3.org/2000/svg">
  <g transform="matrix(1 0 0 1 -828 -614 )">
    <path d="M 24 0  L 20.475 3.525  C 18.3075 1.35  15.315 0  12 0  C 5.37 0  0.0149999999999997 5.37  0.0149999999999997 12  C 0.0149999999999997 18.63  5.37 24  12 24  C 17.5875 24  22.2675 20.175  23.595 15  L 20.475 15  C 19.2375 18.495  15.9225 21  12 21  C 7.0275 21  3 16.9725  3 12  C 3 7.0275  7.0275 3  12 3  C 14.4825 3  16.71 4.035  18.3375 5.6625  L 13.5 10.5  L 24 10.5  L 24 0  Z " fill-rule="nonzero" fill="#4a5778" stroke="none" transform="matrix(1 0 0 1 828 614 )" />
  </g>
</svg>