<?xml version="1.0" encoding="utf-8"?>
<svg version="1.1" xmlns:xlink="http://www.w3.org/1999/xlink" width="14px" height="14px" viewBox="1005 771  14 14" xmlns="http://www.w3.org/2000/svg">
  <path d="M 1012 771  C 1015.92 771  1019 774.08  1019 778  C 1019 781.92  1015.92 785  1012 785  C 1008.08 785  1005 781.92  1005 778  C 1005 774.08  1008.08 771  1012 771  Z " fill-rule="nonzero" fill="#f0f0f0" stroke="none" />
  <path d="M 1012 771.5  C 1015.64 771.5  1018.5 774.36  1018.5 778  C 1018.5 781.64  1015.64 784.5  1012 784.5  C 1008.36 784.5  1005.5 781.64  1005.5 778  C 1005.5 774.36  1008.36 771.5  1012 771.5  Z " stroke-width="1" stroke="#797979" fill="none" />
  <path d="M 1012 781.5  C 1010.04 781.5  1008.5 779.96  1008.5 778  C 1008.5 776.04  1010.04 774.5  1012 774.5  C 1013.96 774.5  1015.5 776.04  1015.5 778  C 1015.5 779.96  1013.96 781.5  1012 781.5  " fill-rule="nonzero" fill="#797979" stroke="none" />
</svg>