<?xml version="1.0" encoding="utf-8"?>
<svg version="1.1" xmlns:xlink="http://www.w3.org/1999/xlink" width="14px" height="14px" viewBox="1382 1641  14 14" xmlns="http://www.w3.org/2000/svg">
  <path d="M 1389 1641  C 1392.92 1641  1396 1644.08  1396 1648  C 1396 1651.92  1392.92 1655  1389 1655  C 1385.08 1655  1382 1651.92  1382 1648  C 1382 1644.08  1385.08 1641  1389 1641  Z " fill-rule="nonzero" fill="#f0f0f0" stroke="none" />
  <path d="M 1389 1641.5  C 1392.64 1641.5  1395.5 1644.36  1395.5 1648  C 1395.5 1651.64  1392.64 1654.5  1389 1654.5  C 1385.36 1654.5  1382.5 1651.64  1382.5 1648  C 1382.5 1644.36  1385.36 1641.5  1389 1641.5  Z " stroke-width="1" stroke="#797979" fill="none" />
  <path d="M 1389 1651.5  C 1387.04 1651.5  1385.5 1649.96  1385.5 1648  C 1385.5 1646.04  1387.04 1644.5  1389 1644.5  C 1390.96 1644.5  1392.5 1646.04  1392.5 1648  C 1392.5 1649.96  1390.96 1651.5  1389 1651.5  " fill-rule="nonzero" fill="#797979" stroke="none" />
</svg>