<?xml version="1.0" encoding="utf-8"?>
<svg version="1.1" xmlns:xlink="http://www.w3.org/1999/xlink" width="14px" height="14px" viewBox="879 317  14 14" xmlns="http://www.w3.org/2000/svg">
  <path d="M 886 317  C 889.92 317  893 320.08  893 324  C 893 327.92  889.92 331  886 331  C 882.08 331  879 327.92  879 324  C 879 320.08  882.08 317  886 317  Z " fill-rule="nonzero" fill="#ffffff" stroke="none" />
  <path d="M 886 317.5  C 889.64 317.5  892.5 320.36  892.5 324  C 892.5 327.64  889.64 330.5  886 330.5  C 882.36 330.5  879.5 327.64  879.5 324  C 879.5 320.36  882.36 317.5  886 317.5  Z " stroke-width="1" stroke="#797979" fill="none" />
  <path d="M 886 327.5  C 884.04 327.5  882.5 325.96  882.5 324  C 882.5 322.04  884.04 320.5  886 320.5  C 887.96 320.5  889.5 322.04  889.5 324  C 889.5 325.96  887.96 327.5  886 327.5  " fill-rule="nonzero" fill="#797979" stroke="none" />
</svg>