<?xml version="1.0" encoding="utf-8"?>
<svg version="1.1" xmlns:xlink="http://www.w3.org/1999/xlink" width="14px" height="14px" viewBox="1005 317  14 14" xmlns="http://www.w3.org/2000/svg">
  <path d="M 1012 317  C 1015.92 317  1019 320.08  1019 324  C 1019 327.92  1015.92 331  1012 331  C 1008.08 331  1005 327.92  1005 324  C 1005 320.08  1008.08 317  1012 317  Z " fill-rule="nonzero" fill="#f0f0f0" stroke="none" />
  <path d="M 1012 317.5  C 1015.64 317.5  1018.5 320.36  1018.5 324  C 1018.5 327.64  1015.64 330.5  1012 330.5  C 1008.36 330.5  1005.5 327.64  1005.5 324  C 1005.5 320.36  1008.36 317.5  1012 317.5  Z " stroke-width="1" stroke="#797979" fill="none" />
  <path d="M 1012 327.5  C 1010.04 327.5  1008.5 325.96  1008.5 324  C 1008.5 322.04  1010.04 320.5  1012 320.5  C 1013.96 320.5  1015.5 322.04  1015.5 324  C 1015.5 325.96  1013.96 327.5  1012 327.5  " fill-rule="nonzero" fill="#797979" stroke="none" />
</svg>