<?xml version="1.0" encoding="utf-8"?>
<svg version="1.1" xmlns:xlink="http://www.w3.org/1999/xlink" width="13px" height="13px" xmlns="http://www.w3.org/2000/svg">
  <g transform="matrix(1 0 0 1 -943 -389 )">
    <path d="M 13 0  L 11.090625 1.909375  C 9.9165625 0.73125  8.295625 0  6.5 0  C 2.90875 0  0.00812499999999983 2.90875  0.00812499999999983 6.5  C 0.00812499999999983 10.09125  2.90875 13  6.5 13  C 9.5265625 13  12.0615625 10.928125  12.780625 8.125  L 11.090625 8.125  C 10.4203125 10.018125  8.6246875 11.375  6.5 11.375  C 3.8065625 11.375  1.625 9.1934375  1.625 6.5  C 1.625 3.8065625  3.8065625 1.625  6.5 1.625  C 7.8446875 1.625  9.05125 2.185625  9.9328125 3.0671875  L 7.3125 5.6875  L 13 5.6875  L 13 0  Z " fill-rule="nonzero" fill="#1e5df8" stroke="none" transform="matrix(1 0 0 1 943 389 )" />
  </g>
</svg>