<?xml version="1.0" encoding="utf-8"?>
<svg version="1.1" xmlns:xlink="http://www.w3.org/1999/xlink" width="14px" height="14px" viewBox="1256 317  14 14" xmlns="http://www.w3.org/2000/svg">
  <path d="M 1263 317  C 1266.92 317  1270 320.08  1270 324  C 1270 327.92  1266.92 331  1263 331  C 1259.08 331  1256 327.92  1256 324  C 1256 320.08  1259.08 317  1263 317  Z " fill-rule="nonzero" fill="#ffffff" stroke="none" />
  <path d="M 1263 317.5  C 1266.64 317.5  1269.5 320.36  1269.5 324  C 1269.5 327.64  1266.64 330.5  1263 330.5  C 1259.36 330.5  1256.5 327.64  1256.5 324  C 1256.5 320.36  1259.36 317.5  1263 317.5  Z " stroke-width="1" stroke="#797979" fill="none" />
  <path d="M 1263 327.5  C 1261.04 327.5  1259.5 325.96  1259.5 324  C 1259.5 322.04  1261.04 320.5  1263 320.5  C 1264.96 320.5  1266.5 322.04  1266.5 324  C 1266.5 325.96  1264.96 327.5  1263 327.5  " fill-rule="nonzero" fill="#797979" stroke="none" />
</svg>