<?xml version="1.0" encoding="utf-8"?>
<svg version="1.1" xmlns:xlink="http://www.w3.org/1999/xlink" width="12px" height="15px" xmlns="http://www.w3.org/2000/svg">
  <g transform="matrix(1 0 0 1 -944 -513 )">
    <path d="M 11.8421052631579 3.28125  C 11.8421052631579 2.5048828125  11.1790707236842 1.875  10.3618421052632 1.875  L 7.89473684210526 1.875  C 7.89473684210526 0.8408203125  7.00966282894737 0  5.92105263157895 0  C 4.83244243421053 0  3.94736842105263 0.8408203125  3.94736842105263 1.875  L 1.48026315789474 1.875  C 0.663034539473684 1.875  0 2.5048828125  0 3.28125  L 0 13.59375  C 0 14.3701171875  0.663034539473684 15  1.48026315789474 15  L 10.3618421052632 15  C 11.1790707236842 15  11.8421052631579 14.3701171875  11.8421052631579 13.59375  L 11.8421052631579 3.28125  Z M 5.18092105263158 1.875  C 5.18092105263158 1.4853515625  5.51089638157895 1.171875  5.92105263157895 1.171875  C 6.33120888157895 1.171875  6.66118421052632 1.4853515625  6.66118421052632 1.875  C 6.66118421052632 2.2646484375  6.33120888157895 2.578125  5.92105263157895 2.578125  C 5.51089638157895 2.578125  5.18092105263158 2.2646484375  5.18092105263158 1.875  Z M 9.66180098684211 7.46484375  C 9.80674342105263 7.60546875  9.80365953947369 7.8251953125  9.65871710526316 7.962890625  L 5.24876644736842 12.1171875  C 5.10382401315789 12.2548828125  4.86944901315789 12.251953125  4.72450657894737 12.1142578125  L 2.17722039473684 9.673828125  C 2.03227796052632 9.5361328125  2.03536184210526 9.3134765625  2.18030427631579 9.17578125  L 3.05612664473684 8.349609375  C 3.20106907894737 8.2119140625  3.43544407894737 8.21484375  3.58038651315789 8.3525390625  L 4.99897203947368 9.7119140625  L 8.26788651315789 6.6298828125  C 8.41282894736842 6.4921875  8.64720394736842 6.4951171875  8.79214638157895 6.6328125  L 9.66180098684211 7.46484375  Z " fill-rule="nonzero" fill="#1e5df8" stroke="none" transform="matrix(1 0 0 1 944 513 )" />
  </g>
</svg>