<?xml version="1.0" encoding="utf-8"?>
<svg version="1.1" xmlns:xlink="http://www.w3.org/1999/xlink" width="14px" height="14px" viewBox="1382 3184  14 14" xmlns="http://www.w3.org/2000/svg">
  <path d="M 1389 3184  C 1392.92 3184  1396 3187.08  1396 3191  C 1396 3194.92  1392.92 3198  1389 3198  C 1385.08 3198  1382 3194.92  1382 3191  C 1382 3187.08  1385.08 3184  1389 3184  Z " fill-rule="nonzero" fill="#ffffff" stroke="none" />
  <path d="M 1389 3184.5  C 1392.64 3184.5  1395.5 3187.36  1395.5 3191  C 1395.5 3194.64  1392.64 3197.5  1389 3197.5  C 1385.36 3197.5  1382.5 3194.64  1382.5 3191  C 1382.5 3187.36  1385.36 3184.5  1389 3184.5  Z " stroke-width="1" stroke="#797979" fill="none" />
  <path d="M 1389 3194.5  C 1387.04 3194.5  1385.5 3192.96  1385.5 3191  C 1385.5 3189.04  1387.04 3187.5  1389 3187.5  C 1390.96 3187.5  1392.5 3189.04  1392.5 3191  C 1392.5 3192.96  1390.96 3194.5  1389 3194.5  " fill-rule="nonzero" fill="#797979" stroke="none" />
</svg>