<?xml version="1.0" encoding="utf-8"?>
<svg version="1.1" xmlns:xlink="http://www.w3.org/1999/xlink" width="14px" height="14px" viewBox="879 771  14 14" xmlns="http://www.w3.org/2000/svg">
  <path d="M 886 771  C 889.92 771  893 774.08  893 778  C 893 781.92  889.92 785  886 785  C 882.08 785  879 781.92  879 778  C 879 774.08  882.08 771  886 771  Z " fill-rule="nonzero" fill="#f0f0f0" stroke="none" />
  <path d="M 886 771.5  C 889.64 771.5  892.5 774.36  892.5 778  C 892.5 781.64  889.64 784.5  886 784.5  C 882.36 784.5  879.5 781.64  879.5 778  C 879.5 774.36  882.36 771.5  886 771.5  Z " stroke-width="1" stroke="#797979" fill="none" />
  <path d="M 886 781.5  C 884.04 781.5  882.5 779.96  882.5 778  C 882.5 776.04  884.04 774.5  886 774.5  C 887.96 774.5  889.5 776.04  889.5 778  C 889.5 779.96  887.96 781.5  886 781.5  " fill-rule="nonzero" fill="#797979" stroke="none" />
</svg>