<?xml version="1.0" encoding="utf-8"?>
<svg version="1.1" xmlns:xlink="http://www.w3.org/1999/xlink" width="14px" height="14px" viewBox="1256 771  14 14" xmlns="http://www.w3.org/2000/svg">
  <path d="M 1263 771  C 1266.92 771  1270 774.08  1270 778  C 1270 781.92  1266.92 785  1263 785  C 1259.08 785  1256 781.92  1256 778  C 1256 774.08  1259.08 771  1263 771  Z " fill-rule="nonzero" fill="#f0f0f0" stroke="none" />
  <path d="M 1263 771.5  C 1266.64 771.5  1269.5 774.36  1269.5 778  C 1269.5 781.64  1266.64 784.5  1263 784.5  C 1259.36 784.5  1256.5 781.64  1256.5 778  C 1256.5 774.36  1259.36 771.5  1263 771.5  Z " stroke-width="1" stroke="#797979" fill="none" />
  <path d="M 1263 781.5  C 1261.04 781.5  1259.5 779.96  1259.5 778  C 1259.5 776.04  1261.04 774.5  1263 774.5  C 1264.96 774.5  1266.5 776.04  1266.5 778  C 1266.5 779.96  1264.96 781.5  1263 781.5  " fill-rule="nonzero" fill="#797979" stroke="none" />
</svg>