<?xml version="1.0" encoding="utf-8"?>
<svg version="1.1" xmlns:xlink="http://www.w3.org/1999/xlink" width="14px" height="14px" viewBox="1382 771  14 14" xmlns="http://www.w3.org/2000/svg">
  <path d="M 1389 771  C 1392.92 771  1396 774.08  1396 778  C 1396 781.92  1392.92 785  1389 785  C 1385.08 785  1382 781.92  1382 778  C 1382 774.08  1385.08 771  1389 771  Z " fill-rule="nonzero" fill="#f0f0f0" stroke="none" />
  <path d="M 1389 771.5  C 1392.64 771.5  1395.5 774.36  1395.5 778  C 1395.5 781.64  1392.64 784.5  1389 784.5  C 1385.36 784.5  1382.5 781.64  1382.5 778  C 1382.5 774.36  1385.36 771.5  1389 771.5  Z " stroke-width="1" stroke="#797979" fill="none" />
  <path d="M 1389 781.5  C 1387.04 781.5  1385.5 779.96  1385.5 778  C 1385.5 776.04  1387.04 774.5  1389 774.5  C 1390.96 774.5  1392.5 776.04  1392.5 778  C 1392.5 779.96  1390.96 781.5  1389 781.5  " fill-rule="nonzero" fill="#797979" stroke="none" />
</svg>