<?xml version="1.0" encoding="utf-8"?>
<svg version="1.1" xmlns:xlink="http://www.w3.org/1999/xlink" width="14px" height="14px" viewBox="879 1641  14 14" xmlns="http://www.w3.org/2000/svg">
  <path d="M 886 1641  C 889.92 1641  893 1644.08  893 1648  C 893 1651.92  889.92 1655  886 1655  C 882.08 1655  879 1651.92  879 1648  C 879 1644.08  882.08 1641  886 1641  Z " fill-rule="nonzero" fill="#ffffff" stroke="none" />
  <path d="M 886 1641.5  C 889.64 1641.5  892.5 1644.36  892.5 1648  C 892.5 1651.64  889.64 1654.5  886 1654.5  C 882.36 1654.5  879.5 1651.64  879.5 1648  C 879.5 1644.36  882.36 1641.5  886 1641.5  Z " stroke-width="1" stroke="#797979" fill="none" />
  <path d="M 886 1651.5  C 884.04 1651.5  882.5 1649.96  882.5 1648  C 882.5 1646.04  884.04 1644.5  886 1644.5  C 887.96 1644.5  889.5 1646.04  889.5 1648  C 889.5 1649.96  887.96 1651.5  886 1651.5  " fill-rule="nonzero" fill="#797979" stroke="none" />
</svg>