<?xml version="1.0" encoding="utf-8"?>
<svg version="1.1" xmlns:xlink="http://www.w3.org/1999/xlink" width="14px" height="14px" viewBox="1131 1641  14 14" xmlns="http://www.w3.org/2000/svg">
  <path d="M 1138 1641  C 1141.92 1641  1145 1644.08  1145 1648  C 1145 1651.92  1141.92 1655  1138 1655  C 1134.08 1655  1131 1651.92  1131 1648  C 1131 1644.08  1134.08 1641  1138 1641  Z " fill-rule="nonzero" fill="#ffffff" stroke="none" />
  <path d="M 1138 1641.5  C 1141.64 1641.5  1144.5 1644.36  1144.5 1648  C 1144.5 1651.64  1141.64 1654.5  1138 1654.5  C 1134.36 1654.5  1131.5 1651.64  1131.5 1648  C 1131.5 1644.36  1134.36 1641.5  1138 1641.5  Z " stroke-width="1" stroke="#797979" fill="none" />
  <path d="M 1138 1651.5  C 1136.04 1651.5  1134.5 1649.96  1134.5 1648  C 1134.5 1646.04  1136.04 1644.5  1138 1644.5  C 1139.96 1644.5  1141.5 1646.04  1141.5 1648  C 1141.5 1649.96  1139.96 1651.5  1138 1651.5  " fill-rule="nonzero" fill="#797979" stroke="none" />
</svg>