<?xml version="1.0" encoding="utf-8"?>
<svg version="1.1" xmlns:xlink="http://www.w3.org/1999/xlink" width="14px" height="14px" viewBox="1256 1641  14 14" xmlns="http://www.w3.org/2000/svg">
  <path d="M 1263 1641  C 1266.92 1641  1270 1644.08  1270 1648  C 1270 1651.92  1266.92 1655  1263 1655  C 1259.08 1655  1256 1651.92  1256 1648  C 1256 1644.08  1259.08 1641  1263 1641  Z " fill-rule="nonzero" fill="#f0f0f0" stroke="none" />
  <path d="M 1263 1641.5  C 1266.64 1641.5  1269.5 1644.36  1269.5 1648  C 1269.5 1651.64  1266.64 1654.5  1263 1654.5  C 1259.36 1654.5  1256.5 1651.64  1256.5 1648  C 1256.5 1644.36  1259.36 1641.5  1263 1641.5  Z " stroke-width="1" stroke="#797979" fill="none" />
  <path d="M 1263 1651.5  C 1261.04 1651.5  1259.5 1649.96  1259.5 1648  C 1259.5 1646.04  1261.04 1644.5  1263 1644.5  C 1264.96 1644.5  1266.5 1646.04  1266.5 1648  C 1266.5 1649.96  1264.96 1651.5  1263 1651.5  " fill-rule="nonzero" fill="#797979" stroke="none" />
</svg>