<?xml version="1.0" encoding="utf-8"?>
<svg version="1.1" xmlns:xlink="http://www.w3.org/1999/xlink" width="14px" height="14px" viewBox="1131 3184  14 14" xmlns="http://www.w3.org/2000/svg">
  <path d="M 1138 3184  C 1141.92 3184  1145 3187.08  1145 3191  C 1145 3194.92  1141.92 3198  1138 3198  C 1134.08 3198  1131 3194.92  1131 3191  C 1131 3187.08  1134.08 3184  1138 3184  Z " fill-rule="nonzero" fill="#ffffff" stroke="none" />
  <path d="M 1138 3184.5  C 1141.64 3184.5  1144.5 3187.36  1144.5 3191  C 1144.5 3194.64  1141.64 3197.5  1138 3197.5  C 1134.36 3197.5  1131.5 3194.64  1131.5 3191  C 1131.5 3187.36  1134.36 3184.5  1138 3184.5  Z " stroke-width="1" stroke="#797979" fill="none" />
  <path d="M 1138 3194.5  C 1136.04 3194.5  1134.5 3192.96  1134.5 3191  C 1134.5 3189.04  1136.04 3187.5  1138 3187.5  C 1139.96 3187.5  1141.5 3189.04  1141.5 3191  C 1141.5 3192.96  1139.96 3194.5  1138 3194.5  " fill-rule="nonzero" fill="#797979" stroke="none" />
</svg>