<?xml version="1.0" encoding="utf-8"?>
<svg version="1.1" xmlns:xlink="http://www.w3.org/1999/xlink" width="14px" height="14px" viewBox="81 146  14 14" xmlns="http://www.w3.org/2000/svg">
  <path d="M 88 146  C 91.92 146  95 149.08  95 153  C 95 156.92  91.92 160  88 160  C 84.08 160  81 156.92  81 153  C 81 149.08  84.08 146  88 146  Z " fill-rule="nonzero" fill="#ffffff" stroke="none" />
  <path d="M 88 146.5  C 91.64 146.5  94.5 149.36  94.5 153  C 94.5 156.64  91.64 159.5  88 159.5  C 84.36 159.5  81.5 156.64  81.5 153  C 81.5 149.36  84.36 146.5  88 146.5  Z " stroke-width="1" stroke="#797979" fill="none" />
  <path d="M 88 156.5  C 86.04 156.5  84.5 154.96  84.5 153  C 84.5 151.04  86.04 149.5  88 149.5  C 89.96 149.5  91.5 151.04  91.5 153  C 91.5 154.96  89.96 156.5  88 156.5  " fill-rule="nonzero" fill="#797979" stroke="none" />
</svg>