<?xml version="1.0" encoding="utf-8"?>
<svg version="1.1" xmlns:xlink="http://www.w3.org/1999/xlink" width="14px" height="14px" viewBox="207 146  14 14" xmlns="http://www.w3.org/2000/svg">
  <path d="M 214 146  C 217.92 146  221 149.08  221 153  C 221 156.92  217.92 160  214 160  C 210.08 160  207 156.92  207 153  C 207 149.08  210.08 146  214 146  Z " fill-rule="nonzero" fill="#f0f0f0" stroke="none" />
  <path d="M 214 146.5  C 217.64 146.5  220.5 149.36  220.5 153  C 220.5 156.64  217.64 159.5  214 159.5  C 210.36 159.5  207.5 156.64  207.5 153  C 207.5 149.36  210.36 146.5  214 146.5  Z " stroke-width="1" stroke="#797979" fill="none" />
  <path d="M 214 156.5  C 212.04 156.5  210.5 154.96  210.5 153  C 210.5 151.04  212.04 149.5  214 149.5  C 215.96 149.5  217.5 151.04  217.5 153  C 217.5 154.96  215.96 156.5  214 156.5  " fill-rule="nonzero" fill="#797979" stroke="none" />
</svg>