<?xml version="1.0" encoding="utf-8"?>
<svg version="1.1" xmlns:xlink="http://www.w3.org/1999/xlink" width="14px" height="14px" viewBox="333 146  14 14" xmlns="http://www.w3.org/2000/svg">
  <path d="M 340 146  C 343.92 146  347 149.08  347 153  C 347 156.92  343.92 160  340 160  C 336.08 160  333 156.92  333 153  C 333 149.08  336.08 146  340 146  Z " fill-rule="nonzero" fill="#ffffff" stroke="none" />
  <path d="M 340 146.5  C 343.64 146.5  346.5 149.36  346.5 153  C 346.5 156.64  343.64 159.5  340 159.5  C 336.36 159.5  333.5 156.64  333.5 153  C 333.5 149.36  336.36 146.5  340 146.5  Z " stroke-width="1" stroke="#797979" fill="none" />
  <path d="M 340 156.5  C 338.04 156.5  336.5 154.96  336.5 153  C 336.5 151.04  338.04 149.5  340 149.5  C 341.96 149.5  343.5 151.04  343.5 153  C 343.5 154.96  341.96 156.5  340 156.5  " fill-rule="nonzero" fill="#797979" stroke="none" />
</svg>