<?xml version="1.0" encoding="utf-8"?>
<svg version="1.1" xmlns:xlink="http://www.w3.org/1999/xlink" width="14px" height="14px" viewBox="458 146  14 14" xmlns="http://www.w3.org/2000/svg">
  <path d="M 465 146  C 468.92 146  472 149.08  472 153  C 472 156.92  468.92 160  465 160  C 461.08 160  458 156.92  458 153  C 458 149.08  461.08 146  465 146  Z " fill-rule="nonzero" fill="#ffffff" stroke="none" />
  <path d="M 465 146.5  C 468.64 146.5  471.5 149.36  471.5 153  C 471.5 156.64  468.64 159.5  465 159.5  C 461.36 159.5  458.5 156.64  458.5 153  C 458.5 149.36  461.36 146.5  465 146.5  Z " stroke-width="1" stroke="#797979" fill="none" />
  <path d="M 465 156.5  C 463.04 156.5  461.5 154.96  461.5 153  C 461.5 151.04  463.04 149.5  465 149.5  C 466.96 149.5  468.5 151.04  468.5 153  C 468.5 154.96  466.96 156.5  465 156.5  " fill-rule="nonzero" fill="#797979" stroke="none" />
</svg>